<svg xmlns="http://www.w3.org/2000/svg" width="400" height="400" viewBox="0 0 124 124" fill="none">
<rect x="0" y="0" transform="rotate(0 0 0)" width="155" height="155" fill="#d8cecc"/>
<rect x="55" y="-17" transform="rotate(18 0 0)" width="20" height="126" fill="#595a79"/>
<rect x="60" y="50" transform="rotate(-8 0 0)" width="10" height="79" fill="#bf4b38"/>
<rect x="0" y="30" transform="rotate(2 0 0)" width="150" height="25" fill="#2e2b36"/>
<rect x="31" y="50" transform="rotate(-23 0 0)" width="31" height="25" fill="#31353e"/>
<rect x="35" y="80" transform="rotate(-4 0 0)" width="50" height="9" fill="#2e2b36"/>
<rect x="59" y="93" transform="rotate(-6 0 0)" width="54" height="14" fill="#31334a"/>
<rect x="59" y="109" transform="rotate(-7 0 0)" width="24" height="3" fill="#2a409a"/>
<rect x="69" y="35" transform="rotate(-9 0 0)" width="3" height="101" fill="#2c418c"/>
<rect x="19" y="30" transform="rotate(-50 0 0)" width="3" height="100" fill="#dda52c"/>
<rect x="40" y="-37" transform="rotate(45 0 0)" width="2" height="24" fill="#dda52c"/>
</svg>
